<?xml version="1.0" encoding="utf-8"?>
<!-- Generator: Adobe Illustrator 27.3.1, SVG Export Plug-In . SVG Version: 6.00 Build 0)  -->
<svg version="1.1" id="Layer_1" xmlns="http://www.w3.org/2000/svg" xmlns:xlink="http://www.w3.org/1999/xlink" x="0px" y="0px"
	 viewBox="0 0 19 18" style="enable-background:new 0 0 19 18;" xml:space="preserve">
<style type="text/css">
	.st0{fill:#1E1E1E;}
	.st1{clip-path:url(#SVGID_00000078726611517882922630000002241592494905004945_);}
	.st2{fill:#FFFFFF;}
	.st3{fill:#E6EEFF;}
	.st4{fill:none;stroke:#6699FF;}
	.st5{fill:#0071BF;}
	.st6{fill-rule:evenodd;clip-rule:evenodd;fill:#0071BF;}
</style>
<rect class="st0" width="19" height="18"/>
<g>
	<defs>
		<rect id="SVGID_1_" x="-536" y="-195.8" width="1280" height="5605"/>
	</defs>
	<clipPath id="SVGID_00000011743760520712728760000002531292857754638009_">
		<use xlink:href="#SVGID_1_"  style="overflow:visible;"/>
	</clipPath>
	<g id="Desktop_2" style="clip-path:url(#SVGID_00000011743760520712728760000002531292857754638009_);">
		<rect x="-536" y="-195.8" class="st2" width="1280" height="5605"/>
		<g id="Hero">
			<g id="headline-2">
				<path class="st3" d="M9-7.3h190c9.1,0,16.5,7.4,16.5,16.5l0,0c0,9.1-7.4,16.5-16.5,16.5H9c-9.1,0-16.5-7.4-16.5-16.5l0,0
					C-7.5,0.1-0.1-7.3,9-7.3z"/>
				<path class="st4" d="M9-7.3h190c9.1,0,16.5,7.4,16.5,16.5l0,0c0,9.1-7.4,16.5-16.5,16.5H9c-9.1,0-16.5-7.4-16.5-16.5l0,0
					C-7.5,0.1-0.1-7.3,9-7.3z"/>
				<g id="icon_x2F_AI_Generate_A_lined">
					<g id="Vector">
						<path class="st5" d="M15,16.7c0,0.4-0.4,0.8-0.8,0.8s-0.8-0.3-0.8-0.8s0.4-0.7,0.8-0.7S15,16.3,15,16.7z"/>
						<path class="st5" d="M18.2,13.7c0,0.4-0.4,0.8-0.8,0.8s-0.8-0.3-0.8-0.8S17,13,17.4,13S18.2,13.3,18.2,13.7z"/>
						<path class="st5" d="M2.4,4.7c0,0.4-0.4,0.8-0.8,0.8c-0.4,0-0.8-0.3-0.8-0.8S1.1,4,1.6,4C2,4,2.4,4.3,2.4,4.7z"/>
						<path class="st5" d="M5.5,1.7c0,0.4-0.4,0.7-0.8,0.7S4,2.1,4,1.7S4.3,1,4.8,1S5.5,1.3,5.5,1.7z"/>
						<path class="st6" d="M9.5,5.1L9,7.1C8.8,7.9,8.1,8.5,7.3,8.7L5.1,9.2l2.1,0.5c0.9,0.2,1.5,0.8,1.7,1.6l0.5,2l0.5-2
							c0.2-0.8,0.9-1.4,1.7-1.6l2.1-0.5l-2.1-0.5c-0.9-0.2-1.5-0.8-1.7-1.6L9.5,5.1z M10.5,4c-0.3-1-1.8-1-2.1,0L7.7,6.8
							C7.6,7.2,7.3,7.5,7,7.5L4,8.2c-1.1,0.2-1.1,1.7,0,2l3,0.7c0.4,0.1,0.7,0.4,0.8,0.7l0.7,2.8c0.3,1,1.8,1,2.1,0
							c0,0,1.1-3.5,1.5-3.6l3-0.7c1.1-0.2,1.1-1.7,0-2l-3-0.7c-0.4-0.1-0.7-0.4-0.8-0.7L10.5,4z"/>
						<path class="st6" d="M7.1,16.9c-0.1,0.3-0.5,0.5-0.9,0.4c-2.4-0.8-4.3-2.6-5.3-4.8c-0.2-0.3,0-0.7,0.4-0.9s0.8,0,0.9,0.4
							c0.8,1.9,2.5,3.4,4.5,4.1C7.1,16.2,7.3,16.6,7.1,16.9z"/>
						<path class="st6" d="M17.7,7c-0.4,0.1-0.8,0-0.9-0.4c-0.8-1.9-2.3-3.5-4.3-4.2C12,2.2,11.9,1.8,12,1.4
							c0.1-0.3,0.6-0.5,0.9-0.4c2.4,0.9,4.2,2.7,5.1,5C18.2,6.4,18,6.8,17.7,7z"/>
					</g>
				</g>
			</g>
		</g>
	</g>
</g>
<path class="st6" d="M15.3,4.1"/>
</svg>
